<svg width="20" height="19" viewBox="0 0 20 19" fill="none" xmlns="http://www.w3.org/2000/svg">
<path d="M0.5 1L1.26943 1.25648C1.74987 1.41662 2.18643 1.68643 2.54454 2.04454C3.15631 2.65631 3.5 3.48605 3.5 4.35123V4.5M3.5 11.5V4.5M3.5 4.5L5.11826 2.47717C5.37124 2.16095 5.6715 1.88567 6.00845 1.66104C6.65499 1.23001 7.41465 1 8.1917 1H8.68825C9.22208 1 9.74858 1.12429 10.226 1.36302L10.4839 1.49194C11.1345 1.81724 11.6292 2.38768 11.8593 3.07776C11.9525 3.35742 12 3.65029 12 3.94508V10.169C12 10.3893 12.0182 10.6092 12.0544 10.8265L12.2972 12.283C12.3531 12.6183 12.4527 12.9426 12.5922 13.2483M12.5922 13.2483L13.3154 12.2538C13.4383 12.0849 13.5742 11.9258 13.7219 11.7781L14.2531 11.2469C14.7313 10.7687 15.3799 10.5 16.0562 10.5H16.0845C16.9627 10.5 17.7764 10.9607 18.2283 11.7138C18.7033 12.5055 18.7033 13.4945 18.2283 14.2862C17.7764 15.0393 16.9627 15.5 16.0845 15.5H15.7675C14.9559 15.5 14.1776 15.1776 13.6038 14.6038L13.3724 14.3724C13.0454 14.0454 12.7819 13.6641 12.5922 13.2483ZM12.5922 13.2483L9.83413 17.0406C9.61459 17.3424 9.32574 17.5871 8.9919 17.7541C8.66841 17.9158 8.31171 18 7.95004 18H6" stroke="white" stroke-linecap="round"/>
</svg>
