<svg width="18" height="18" viewBox="0 0 18 18" fill="none" xmlns="http://www.w3.org/2000/svg">
<path fill-rule="evenodd" clip-rule="evenodd" d="M8.56722 0C7.43114 0 6.34159 0.451308 5.53825 1.25464C4.88287 1.91002 4.45774 2.76029 4.32666 3.67782L4.1901 4.63379C4.05873 5.55336 4.10703 6.48968 4.33232 7.39085L4.79662 9.24803C4.39562 9.08801 3.95809 9 3.5 9C1.567 9 0 10.567 0 12.5C0 14.433 1.567 16 3.5 16C5.433 16 7 14.433 7 12.5C7 11.5419 6.61506 10.6738 5.99142 10.0418C5.98014 9.90511 5.95775 9.76946 5.92444 9.6362L5.30247 7.14831C5.10855 6.37264 5.06697 5.56672 5.18005 4.77521L5.31661 3.81924C5.41709 3.1159 5.74298 2.46413 6.24536 1.96175C6.86116 1.34595 7.69636 1 8.56722 1H9.26332C9.68636 1 10.1055 1.08072 10.4983 1.23783L10.6363 1.29304C11.541 1.65493 12.2169 2.42925 12.4533 3.37457C12.797 4.74964 12.7415 6.19423 12.2933 7.53889L11.5196 9.8601L10.6963 13.1532C10.5589 13.7027 10.5453 14.2759 10.6564 14.8314L10.706 15.0793C10.9286 16.1924 11.6984 17.1179 12.7524 17.5395C13.5533 17.8598 14.4467 17.8598 15.2476 17.5395L15.3434 17.5012C16.3313 17.106 17.0951 16.296 17.4315 15.2866L17.4743 15.1581C17.5617 14.8961 17.4201 14.613 17.1581 14.5257C16.8961 14.4383 16.613 14.5799 16.5257 14.8419L16.4828 14.9704C16.2394 15.7007 15.6868 16.2868 14.972 16.5727L14.8762 16.611C14.3137 16.836 13.6863 16.836 13.1238 16.611C12.3835 16.3149 11.8429 15.665 11.6865 14.8832L11.637 14.6353C11.5549 14.225 11.565 13.8016 11.6665 13.3957L12.4804 10.1399L13.242 7.85512C13.7504 6.33004 13.8133 4.69161 13.4234 3.13203C13.1092 1.8752 12.2106 0.845704 11.0077 0.364562L10.8697 0.309358C10.3588 0.104997 9.81358 0 9.26332 0H8.56722ZM6.125 12.5C6.125 13.9497 4.94975 15.125 3.5 15.125C2.05025 15.125 0.875 13.9497 0.875 12.5C0.875 11.0503 2.05025 9.875 3.5 9.875C4.94975 9.875 6.125 11.0503 6.125 12.5Z" fill="white"/>
</svg>
